<?xml version="1.0" encoding="utf-8"?>
<svg version="1.1" xmlns:xlink="http://www.w3.org/1999/xlink" width="119px" height="90px" xmlns="http://www.w3.org/2000/svg">
  <g transform="matrix(1 0 0 1 -902 -597 )">
    <path d="M 50.232177734375 68.994140625  C 51.452392578125 67.490234375  52.0625 65.6640625  52.0625 63.515625  C 52.0625 61.40625  51.917236328125 59.443359375  51.626708984375 57.626953125  C 51.336181640625 55.810546875  50.8616536458333 54.052734375  50.203125 52.353515625  C 49.5445963541667 50.654296875  48.5568033854167 49.31640625  47.23974609375 48.33984375  C 45.9226888020833 47.36328125  44.3538411458333 46.875  42.533203125 46.875  C 40.0540364583333 49.375  37.0325520833333 50.625  33.46875 50.625  C 29.9049479166667 50.625  26.8834635416667 49.375  24.404296875 46.875  C 22.5836588541667 46.875  21.0148111979167 47.36328125  19.69775390625 48.33984375  C 18.3806966145833 49.31640625  17.3929036458333 50.654296875  16.734375 52.353515625  C 16.0758463541667 54.052734375  15.601318359375 55.810546875  15.310791015625 57.626953125  C 15.020263671875 59.443359375  14.875 61.40625  14.875 63.515625  C 14.875 65.6640625  15.485107421875 67.490234375  16.705322265625 68.994140625  C 17.925537109375 70.498046875  19.3878580729167 71.25  21.09228515625 71  L 45.84521484375 71  C 47.5496419270833 71.25  49.011962890625 70.498046875  50.232177734375 68.994140625  Z M 41.37109375 45.46875  C 43.5403645833333 43.28125  44.625 40.625  44.625 37.5  C 44.625 34.375  43.5403645833333 31.71875  41.37109375 29.53125  C 39.2018229166667 27.34375  36.5677083333333 26.25  33.46875 26.25  C 30.3697916666667 26.25  27.7356770833333 27.34375  25.56640625 29.53125  C 23.3971354166667 31.71875  22.3125 34.375  22.3125 37.5  C 22.3125 40.625  23.3971354166667 43.28125  25.56640625 45.46875  C 27.7356770833333 47.65625  30.3697916666667 48.75  33.46875 48.75  C 36.5677083333333 48.75  39.2018229166667 47.65625  41.37109375 45.46875  Z M 103.60205078125 66.97265625  C 103.95068359375 66.62109375  104.125 66.171875  104.125 65.625  L 104.125 61.875  C 104.125 61.328125  103.95068359375 60.87890625  103.60205078125 60.52734375  C 103.25341796875 60.17578125  102.807942708333 60  102.265625 60  L 61.359375 60  C 60.8170572916667 60  60.37158203125 60.17578125  60.02294921875 60.52734375  C 59.67431640625 60.87890625  59.5 61.328125  59.5 61.875  L 59.5 65.625  C 59.5 66.171875  59.67431640625 66.62109375  60.02294921875 66.97265625  C 60.37158203125 67.32421875  60.8170572916667 67.5  61.359375 67  L 102.265625 67  C 102.807942708333 67.5  103.25341796875 67.32421875  103.60205078125 66.97265625  Z M 81.28955078125 51.97265625  C 81.63818359375 51.62109375  81.8125 51.171875  81.8125 50.625  L 81.8125 46.875  C 81.8125 46.328125  81.63818359375 45.87890625  81.28955078125 45.52734375  C 80.94091796875 45.17578125  80.4954427083333 45  79.953125 45  L 61.359375 45  C 60.8170572916667 45  60.37158203125 45.17578125  60.02294921875 45.52734375  C 59.67431640625 45.87890625  59.5 46.328125  59.5 46.875  L 59.5 50.625  C 59.5 51.171875  59.67431640625 51.62109375  60.02294921875 51.97265625  C 60.37158203125 52.32421875  60.8170572916667 52.5  61.359375 52  L 79.953125 52  C 80.4954427083333 52.5  80.94091796875 52.32421875  81.28955078125 51.97265625  Z M 103.60205078125 51.97265625  C 103.95068359375 51.62109375  104.125 51.171875  104.125 50.625  L 104.125 46.875  C 104.125 46.328125  103.95068359375 45.87890625  103.60205078125 45.52734375  C 103.25341796875 45.17578125  102.807942708333 45  102.265625 45  L 91.109375 45  C 90.5670572916667 45  90.12158203125 45.17578125  89.77294921875 45.52734375  C 89.42431640625 45.87890625  89.25 46.328125  89.25 46.875  L 89.25 50.625  C 89.25 51.171875  89.42431640625 51.62109375  89.77294921875 51.97265625  C 90.12158203125 52.32421875  90.5670572916667 52.5  91.109375 52  L 102.265625 52  C 102.807942708333 52.5  103.25341796875 52.32421875  103.60205078125 51.97265625  Z M 103.60205078125 36.97265625  C 103.95068359375 36.62109375  104.125 36.171875  104.125 35.625  L 104.125 31.875  C 104.125 31.328125  103.95068359375 30.87890625  103.60205078125 30.52734375  C 103.25341796875 30.17578125  102.807942708333 30  102.265625 30  L 61.359375 30  C 60.8170572916667 30  60.37158203125 30.17578125  60.02294921875 30.52734375  C 59.67431640625 30.87890625  59.5 31.328125  59.5 31.875  L 59.5 35.625  C 59.5 36.171875  59.67431640625 36.62109375  60.02294921875 36.97265625  C 60.37158203125 37.32421875  60.8170572916667 37.5  61.359375 38  L 102.265625 38  C 102.807942708333 37.5  103.25341796875 37.32421875  103.60205078125 36.97265625  Z M 7.4375 9.375  L 7.4375 15  L 111.5625 15  L 111.5625 9.375  C 111.5625 8.82812499999999  111.38818359375 8.37890625  111.03955078125 8.02734375  C 110.69091796875 7.67578125  110.245442708333 7.5  109.703125 8  L 9.296875 8  C 8.75455729166667 7.5  8.30908203125 7.67578125  7.96044921875 8.02734375  C 7.61181640625 8.37890625  7.4375 8.82812499999999  7.4375 9.375  Z M 116.26904296875 2.75390625  C 118.089680989583 4.58984375  119 6.796875  119 9.375  L 119 80.625  C 119 83.203125  118.089680989583 85.41015625  116.26904296875 87.24609375  C 114.448404947917 89.08203125  112.259765625 90  109.703125 90  L 9.296875 90  C 6.740234375 90  4.55159505208333 89.08203125  2.73095703125 87.24609375  C 0.910319010416667 85.41015625  0 83.203125  0 80.625  L 0 9.375  C 0 6.796875  0.910319010416667 4.58984375  2.73095703125 2.75390625  C 4.55159505208333 0.917968749999991  6.740234375 0  9.296875 0  L 109.703125 0  C 112.259765625 0  114.448404947917 0.917968749999991  116.26904296875 2.75390625  Z " fill-rule="nonzero" fill="#000000" stroke="none" transform="matrix(1 0 0 1 902 597 )" />
  </g>
</svg>